<svg xmlns="http://www.w3.org/2000/svg" viewBox="0 0 295.96 96.027"><path d="M48.436 7.855c-13.29 0-29.628 2.032-34.089 6.497-4.462 4.462-6.495 20.815-6.495 34.121 0 13.272 2.033 29.593 6.495 34.057 2.109 2.109 9.341 5.644 34.089 5.644 24.747 0 31.98-3.535 34.088-5.645 3.321-3.322 5.517-20.284 5.646-34.094-.127-13.765-2.323-30.76-5.647-34.083-4.461-4.465-20.797-6.497-34.087-6.497zm0 88.172c-21.623 0-34.22-2.525-39.64-7.946C.634 79.917 0 55.701 0 48.473 0 41.23.634 16.96 8.795 8.8 16.955.639 41.2.003 48.436.003c7.236 0 31.48.636 39.64 8.796 7.29 7.29 7.899 34.298 7.946 39.64-.05 5.403-.668 32.361-7.946 39.642-5.422 5.42-18.018 7.946-39.64 7.946M135.501 44.247c.136.197.282.38.431.53.164.162.36.308.593.432.224.111.48.195.756.245.271.052.59.078.975.078h5.359a.498.498 0 0 0 .413-.774l-7.804-11.66a4.763 4.763 0 0 0-1.641-1.593c.064-.048.126-.098.192-.148.322-.266.638-.606.933-1.003l7.667-10.163a.498.498 0 1 0-.397-.797h-5.22c-.671 0-1.222.09-1.68.271-.503.198-.947.567-1.315 1.096l-5.82 8.208c-.296.407-.792.607-1.515.607h-.459v-9.684a.495.495 0 0 0-.497-.498h-6.001a.495.495 0 0 0-.498.498v25.143c0 .276.223.497.498.497h6a.497.497 0 0 0 .498-.497V34.832h.956c.486 0 .867.053 1.135.164.234.094.423.255.582.5l5.86 8.751M163.636 45.035c0 .276.223.497.5.497h6.033a.496.496 0 0 0 .498-.497V19.892a.494.494 0 0 0-.498-.498h-6.033c-.277 0-.5.22-.5.498v10.013h-9.508V19.892a.497.497 0 0 0-.5-.498h-6.036a.495.495 0 0 0-.499.498v25.143c0 .276.223.497.499.497h6.036c.275 0 .5-.22.5-.497V34.902h9.508v10.133M187.079 27.176l.126-.39c.04.124.084.246.126.368.205.597.388 1.115.541 1.542l2.15 6.23h-5.663l2.14-6.168c.178-.447.373-.971.58-1.582zm13.216 18.356a.496.496 0 0 0 .385-.812l-9.959-25.012a.497.497 0 0 0-.464-.314h-6.138a.5.5 0 0 0-.464.314l-10.01 25.142a.498.498 0 0 0 .464.682h4.684c.614 0 1.138-.165 1.563-.485.421-.32.71-.688.86-1.108l1.41-4.05h9.126l1.41 4.055c.166.46.462.848.886 1.15.421.291.95.438 1.572.438H200.295M210.636 24.754h1.916c1.424 0 2.473.273 3.115.82.628.52.932 1.242.932 2.2 0 .498-.075.963-.222 1.383a2.65 2.65 0 0 1-.682 1.062c-.304.3-.716.543-1.226.717-.51.188-1.136.279-1.917.279h-1.916zm14.661 20.778h.023a.497.497 0 0 0 .328-.873l-5.432-8.637a4.92 4.92 0 0 0-1.368-1.441 8.64 8.64 0 0 0 1.428-.864 8.246 8.246 0 0 0 1.741-1.755c.467-.647.83-1.37 1.076-2.156.239-.77.36-1.6.36-2.461 0-1.128-.206-2.19-.608-3.164-.413-.987-1.077-1.85-1.968-2.558-.882-.708-2.029-1.264-3.406-1.654-1.348-.384-3.004-.575-4.919-.575h-8.413a.496.496 0 0 0-.499.498v25.143c0 .276.224.497.499.497h5.998a.497.497 0 0 0 .499-.497V36.23h1.028c.464 0 .71.081.837.149.171.09.33.26.474.505l4.296 7.305c.53.892 1.404 1.343 2.596 1.343h5.43M238.11 34.996c.234.094.42.258.582.5l5.863 8.758c.137.195.278.372.424.522.164.163.36.307.597.433.224.112.479.195.755.245.269.052.588.078.973.078h5.36a.5.5 0 0 0 .415-.774l-7.806-11.66c-.336-.516-.717-.94-1.136-1.254a5.305 5.305 0 0 0-.504-.339c.06-.048.124-.095.19-.148.328-.266.641-.607.932-1.003l7.67-10.163a.497.497 0 1 0-.4-.797h-5.218c-.67 0-1.222.09-1.679.271-.504.198-.948.567-1.319 1.096l-5.816 8.208c-.298.407-.793.607-1.514.607h-.46v-9.684a.496.496 0 0 0-.498-.498h-6a.494.494 0 0 0-.497.498v25.143c0 .276.221.497.497.497h6a.497.497 0 0 0 .498-.497V34.832h.954c.486 0 .868.053 1.136.164M279.2 45.225a.497.497 0 0 0 .46.307h5.435c.2 0 .382-.12.461-.307l10.363-25.143a.49.49 0 0 0-.047-.469.492.492 0 0 0-.413-.219h-4.86c-.614 0-1.139.164-1.563.484-.416.313-.705.68-.861 1.095l-4.97 13.467c-.216.592-.432 1.24-.657 1.939-.043.143-.087.284-.13.43-.047-.149-.095-.295-.143-.442a63.38 63.38 0 0 0-.687-1.93l-5.01-13.467a2.422 2.422 0 0 0-.89-1.146c-.41-.285-.937-.43-1.565-.43h-4.826a.494.494 0 0 0-.459.687L279.2 45.226M125.755 56.638h-5.169a.46.46 0 0 0-.46.458v21.547c0 .256.207.46.46.46h5.17a.457.457 0 0 0 .458-.46V57.096a.458.458 0 0 0-.459-.458M264.37 45.57c.295 0 .537-.24.537-.535V19.892a.537.537 0 0 0-.538-.537h-6.033a.537.537 0 0 0-.539.537v25.143c0 .296.242.535.539.535h6.033M147.47 56.638h-17.613a.458.458 0 0 0-.458.458v3.962c0 .25.205.459.458.459h5.779v17.126c0 .256.205.46.459.46h5.141a.456.456 0 0 0 .457-.46V61.517h5.776c.254 0 .46-.209.46-.459v-3.962a.46.46 0 0 0-.46-.458M175.24 58.188a10.114 10.114 0 0 0-1.848-.95 12.219 12.219 0 0 0-2.143-.614 13.143 13.143 0 0 0-2.434-.222c-1.768 0-3.403.281-4.863.841-1.481.567-2.763 1.366-3.808 2.378a10.804 10.804 0 0 0-2.485 3.634c-.588 1.392-.886 2.941-.886 4.607 0 1.631.258 3.157.768 4.542a10.69 10.69 0 0 0 2.235 3.65c.976 1.027 2.167 1.835 3.547 2.413 1.385.577 2.969.874 4.702.874 1.884 0 3.551-.304 4.947-.908a8.93 8.93 0 0 0 3.533-2.698.46.46 0 0 0-.033-.606l-2.05-2.105a1.501 1.501 0 0 0-.503-.32 1.556 1.556 0 0 0-1.156.04c-.175.08-.342.18-.502.308-.297.25-.569.448-.84.602-.26.144-.549.277-.853.383a4.756 4.756 0 0 1-.988.204c-.967.122-2.263.095-3.32-.354a4.88 4.88 0 0 1-1.703-1.23c-.486-.536-.882-1.213-1.172-2.008-.289-.799-.433-1.735-.433-2.787 0-1.003.144-1.91.433-2.697.291-.795.686-1.454 1.198-2.013a5.156 5.156 0 0 1 1.826-1.26c.715-.297 1.515-.448 2.376-.448a6.32 6.32 0 0 1 2.292.375c.271.106.507.219.699.335l.6.37c.195.12.379.22.553.307.558.277 1.259.191 1.628-.09.18-.13.344-.283.49-.473l1.736-2.263a.46.46 0 0 0-.038-.603 8.965 8.965 0 0 0-1.505-1.214M193.357 74.186h-7.753v-17.09a.457.457 0 0 0-.459-.458h-5.137a.46.46 0 0 0-.461.458v21.547c0 .256.205.46.461.46h13.35a.46.46 0 0 0 .46-.46V74.65a.464.464 0 0 0-.46-.464M216.047 56.638h-5.14a.46.46 0 0 0-.462.458v12.76c0 .71-.092 1.345-.274 1.89a3.7 3.7 0 0 1-.764 1.351 3.203 3.203 0 0 1-1.21.839c-.969.397-2.368.397-3.345 0a3.2 3.2 0 0 1-1.208-.844c-.335-.37-.583-.813-.764-1.362-.181-.547-.273-1.182-.273-1.884v-12.75a.46.46 0 0 0-.46-.458h-5.142a.459.459 0 0 0-.458.458v12.76c0 1.37.232 2.65.688 3.806a8.52 8.52 0 0 0 1.992 3.019c.864.844 1.926 1.502 3.15 1.96 1.224.462 2.62.7 4.147.7 1.52 0 2.91-.238 4.13-.7 1.227-.458 2.289-1.116 3.155-1.96a8.667 8.667 0 0 0 2-3.017c.462-1.15.695-2.436.695-3.807v-12.76a.457.457 0 0 0-.457-.459M233.612 67.483a6.636 6.636 0 0 0-1.7-1.175 18.678 18.678 0 0 0-1.868-.769 36.755 36.755 0 0 0-1.83-.574 13.354 13.354 0 0 1-1.526-.552c-.407-.184-.737-.402-.98-.646-.2-.202-.295-.439-.295-.754 0-.544.179-.958.546-1.272.384-.323 1.008-.487 1.853-.487a4.3 4.3 0 0 1 1.35.192c.409.133.775.283 1.09.454l.91.47c.703.383 1.403.34 1.883.009.215-.151.41-.366.614-.677l1.28-2.324a.457.457 0 0 0-.095-.562 7.47 7.47 0 0 0-1.43-1.015c-.513-.29-1.083-.55-1.694-.76a11.579 11.579 0 0 0-1.912-.48 13.355 13.355 0 0 0-2.056-.159c-1.268 0-2.412.192-3.403.568-.994.382-1.849.897-2.534 1.536a6.483 6.483 0 0 0-1.583 2.206 6.32 6.32 0 0 0-.543 2.551c0 1.078.151 1.969.462 2.716.306.738.717 1.367 1.218 1.858a6.12 6.12 0 0 0 1.702 1.203c.606.292 1.236.537 1.869.732a41.4 41.4 0 0 0 1.828.529 10.1 10.1 0 0 1 1.503.526c.406.18.729.406.965.67.207.23.305.533.305.918 0 .724-.193 1.227-.594 1.536-.434.337-1.072.505-1.896.505-.623 0-1.172-.085-1.632-.25a7.872 7.872 0 0 1-1.276-.593c-.388-.222-.731-.427-1.047-.618-.695-.41-1.401-.45-2.019-.13-.273.147-.49.342-.642.586l-1.522 2.34a.457.457 0 0 0 .064.579c.46.449.992.847 1.624 1.22.61.356 1.268.67 1.959.93.712.268 1.436.468 2.147.596.738.15 1.477.225 2.193.225 1.303 0 2.49-.198 3.53-.588 1.04-.386 1.929-.932 2.649-1.62a6.974 6.974 0 0 0 1.65-2.429c.378-.917.57-1.914.57-2.966 0-.95-.159-1.787-.466-2.49a5.609 5.609 0 0 0-1.221-1.765M255.003 56.638h-17.61a.46.46 0 0 0-.46.458v3.962c0 .25.207.459.46.459h5.775v17.126c0 .256.207.46.46.46h5.139a.458.458 0 0 0 .458-.46V61.517h5.778c.252 0 .46-.209.46-.459v-3.962a.46.46 0 0 0-.46-.458M272.913 56.638h-14.262a.46.46 0 0 0-.46.458v21.547c0 .256.206.46.46.46h14.262a.459.459 0 0 0 .462-.46v-3.848a.462.462 0 0 0-.462-.462h-8.629v-4.208h6.501a.46.46 0 0 0 .46-.462V65.97a.46.46 0 0 0-.46-.46h-6.501V61.4h8.63a.46.46 0 0 0 .46-.459v-3.845a.46.46 0 0 0-.46-.458M282.95 61.298h1.607c1.21 0 2.102.23 2.646.687.534.45.792 1.06.792 1.867 0 .422-.063.816-.188 1.173a2.242 2.242 0 0 1-.578.895c-.258.258-.609.464-1.029.615-.445.151-.997.23-1.643.23h-1.606zm12.853 16.997l-4.654-7.398a4.26 4.26 0 0 0-.876-1.009c-.082-.07-.169-.134-.254-.2a7.594 7.594 0 0 0 1.181-.72 7.09 7.09 0 0 0 1.499-1.511c.409-.577.72-1.202.921-1.853a7.216 7.216 0 0 0 .308-2.12c0-.98-.176-1.894-.52-2.718-.35-.85-.921-1.593-1.696-2.213-.761-.608-1.748-1.083-2.925-1.414-1.167-.333-2.59-.5-4.23-.5h-7.205a.458.458 0 0 0-.46.457v21.547c0 .256.204.46.46.46h5.137a.459.459 0 0 0 .462-.46v-7.509h.849c.393 0 .6.064.703.119.137.074.27.216.393.42l3.679 6.255c.462.781 1.22 1.175 2.25 1.175h4.675a.46.46 0 0 0 .303-.808" fill="#24b493"/><path d="M36.773 47.916c0-5.453-.228-20.235-1.226-23.574-.232-.78-.518-1.508-.9-2.16-1.182-2.026-3.1-3.34-5.263-3.34-2.361 0-4.428 1.565-5.57 3.911a9.248 9.248 0 0 0-.593 1.582c-.777 2.807-1.337 18.116-1.346 23.581v.199c.01 5.464.569 20.772 1.346 23.58.154.557.352 1.088.594 1.582 1.141 2.346 3.208 3.911 5.57 3.911 2.162 0 4.08-1.312 5.262-3.338.382-.654.668-1.383.9-2.16.998-3.34 1.226-18.122 1.226-23.575v-.1-.099" fill="#24b493"/><path d="M68.651 64.498c-.226-.102-13.87-5.151-13.433-16.383h-.002l.002-.002c0-.032.003-.064.003-.098 0-.033-.003-.064-.003-.097h-.002.002C54.78 36.684 68.425 31.636 68.65 31.533c4.529-2.066 6.207-5.841 4.794-8.975-1.677-3.716-7.191-3.716-7.935-3.716-14.083 0-25.117 13.003-25.197 29.076h.004-.004l.002.097-.002.098.004.002h-.004c.08 16.072 11.114 29.073 25.197 29.073.744 0 6.258 0 7.935-3.715 1.413-3.135-.265-6.907-4.794-8.975" fill="#4dc5d9"/></svg>