<svg width="1907" height="794" viewBox="0 0 1907 794" fill="none" xmlns="http://www.w3.org/2000/svg">
<path fill-rule="evenodd" clip-rule="evenodd" d="M1056.2 7.38299C1132.98 33.1214 1099.26 165.661 1157.99 221.41C1203.36 264.473 1315.19 211.595 1334.16 271.204C1353.18 330.989 1230.32 352.771 1219.44 414.557C1205.09 495.997 1315.26 584.587 1267.12 651.822C1225.12 710.476 1122.42 671.163 1056.2 642.535C1002.89 619.488 993.599 546.474 946.113 513.039C897.31 478.677 816.083 500.003 783.108 450.251C749.89 400.131 768.996 331.421 787.914 274.346C806.744 217.533 846.433 173.413 888.86 131.195C939.279 81.0239 988.759 -15.2235 1056.2 7.38299Z" stroke="white" stroke-width="7"/>
<path fill-rule="evenodd" clip-rule="evenodd" d="M1612.34 137.628C1678.96 143.997 1710.49 221.25 1761.99 263.992C1808.82 302.862 1879.24 319.288 1900.1 376.463C1921.1 434.041 1884.85 494.081 1867.33 552.81C1849.28 613.312 1851.73 692.815 1796.54 723.492C1740.86 754.449 1675.66 701.624 1612.34 694.558C1559.08 688.615 1497.58 718.988 1455.77 685.465C1414 651.975 1413.06 588.268 1413 534.73C1412.96 492.603 1451.68 460.948 1455.48 418.993C1461.24 355.573 1409.35 288.862 1440.36 233.241C1473.1 174.513 1545.41 131.228 1612.34 137.628Z" fill="#05325B"/>
<path fill-rule="evenodd" clip-rule="evenodd" d="M324.919 168.206C376.843 157.886 414.761 216.484 461.398 241.535C518.284 272.09 616.161 267.444 627.887 330.943C640.211 397.682 524.32 422.925 507.012 488.549C487.704 561.752 567.036 644.147 528.145 709.101C489.574 773.52 399.64 800.038 324.919 792.673C252.281 785.513 206 717.122 148.854 671.716C94.8318 628.791 6.86978 603.519 0.405187 534.824C-6.29989 463.573 71.7612 415.796 119.777 362.728C148.843 330.603 191.443 318.749 222.88 288.939C262.075 251.773 271.941 178.735 324.919 168.206Z" fill="#05325B"/>
</svg>
