<svg width="1908" height="826" viewBox="0 0 1908 826" fill="none" xmlns="http://www.w3.org/2000/svg">
<rect y="1" width="1920" height="825" fill="#F93D24"/>
<mask id="mask0_714_3578" style="mask-type:alpha" maskUnits="userSpaceOnUse" x="0" y="0" width="1920" height="825">
<rect width="1920" height="825" fill="#F93D24"/>
</mask>
<g mask="url(#mask0_714_3578)">
<path fill-rule="evenodd" clip-rule="evenodd" d="M1661.34 -143.372C1727.96 -137.003 1759.49 -59.7504 1810.99 -17.0076C1857.82 21.8618 1928.24 38.2877 1949.1 95.4631C1970.1 153.041 1933.85 213.081 1916.33 271.81C1898.28 332.312 1900.73 411.815 1845.54 442.492C1789.86 473.449 1724.66 420.624 1661.34 413.558C1608.08 407.615 1546.58 437.988 1504.77 404.465C1463 370.975 1462.06 307.268 1462 253.73C1461.96 211.603 1500.68 179.948 1504.48 137.993C1510.24 74.573 1458.35 7.8622 1489.36 -47.7592C1522.1 -106.487 1594.41 -149.772 1661.34 -143.372Z" fill="#05325B"/>
<path fill-rule="evenodd" clip-rule="evenodd" d="M373.919 -112.794C425.843 -123.114 463.761 -64.516 510.398 -39.4652C567.284 -8.90967 665.161 -13.5562 676.887 49.9427C689.211 116.682 573.32 141.925 556.012 207.549C536.704 280.752 616.036 363.147 577.145 428.101C538.574 492.52 448.64 519.038 373.919 511.673C301.281 504.513 255 436.122 197.854 390.716C143.832 347.791 55.8698 322.519 49.4052 253.824C42.7001 182.573 120.761 134.796 168.777 81.7284C197.843 49.6035 240.443 37.7485 271.88 7.93914C311.075 -29.2267 320.941 -102.265 373.919 -112.794Z" fill="#05325B"/>
<path fill-rule="evenodd" clip-rule="evenodd" d="M1466.58 314.032C1531.66 313.181 1603.14 329.07 1645.97 378.079C1686.68 424.658 1680.5 494.4 1678.23 556.217C1676.59 600.894 1651.73 638.256 1634.9 679.673C1619.62 717.258 1612.84 758.203 1584.38 787.123C1552.3 819.734 1512.18 854.493 1466.58 850.752C1421.36 847.041 1404.17 785.719 1362.04 768.878C1294.98 742.072 1198.04 784.23 1155.02 726.217C1115.43 672.827 1163.88 596.384 1188.28 534.557C1211.24 476.367 1241.54 421.578 1290.57 382.728C1341.17 342.633 1402.03 314.877 1466.58 314.032Z" fill="#FBA08E"/>
<path fill-rule="evenodd" clip-rule="evenodd" d="M107.977 214.252C178.846 217.948 239.313 91.9236 298.366 131.277C356.255 169.854 263.227 269.865 288.618 334.631C317.133 407.367 460.795 426.193 443.887 502.468C427.749 575.264 296.051 525.346 236.417 570.106C174.985 616.216 181.45 732.196 107.977 754.595C36.6304 776.346 -58.2575 736.412 -93.5477 670.7C-130.186 602.476 -60.0333 524.386 -57.2146 446.999C-55.7518 406.836 -76.4373 371.76 -81.2058 331.855C-90.1988 256.598 -161.778 150.649 -97.4091 110.634C-30.6516 69.1353 29.4792 210.157 107.977 214.252Z" stroke="white" stroke-width="7"/>
<path fill-rule="evenodd" clip-rule="evenodd" d="M837.199 320.244C916.026 327.035 909.429 455.13 956.712 518.566C984.435 555.761 1033.05 571.401 1054.9 612.324C1079.98 659.29 1099.52 712.577 1088.06 764.57C1076.07 818.973 1041.21 869.892 992.268 896.495C945.695 921.808 888.988 889.613 837.199 900.915C761.54 917.426 686.463 1022.28 623.693 976.927C561.001 931.63 636.426 827.647 629.213 750.64C624.311 698.312 574.172 652.824 588.598 602.285C603.118 551.418 666.749 536.285 701.728 496.601C751.973 439.597 761.492 313.722 837.199 320.244Z" fill="#C1E2FF"/>
<path fill-rule="evenodd" clip-rule="evenodd" d="M1105.2 -273.617C1181.98 -247.879 1148.26 -115.339 1206.99 -59.5895C1252.36 -16.5268 1364.19 -69.4054 1383.16 -9.7962C1402.18 49.9886 1279.32 71.7712 1268.44 133.557C1254.09 214.997 1364.26 303.587 1316.12 370.822C1274.12 429.476 1171.42 390.163 1105.2 361.535C1051.89 338.488 1042.6 265.474 995.113 232.039C946.31 197.677 865.083 219.003 832.108 169.251C798.89 119.131 817.996 50.4211 836.914 -6.6535C855.744 -63.4669 895.433 -107.587 937.86 -149.805C988.279 -199.976 1037.76 -296.224 1105.2 -273.617Z" stroke="white" stroke-width="7"/>
</g>
</svg>
