<svg width="1953" height="1107" viewBox="0 0 1953 1107" fill="none" xmlns="http://www.w3.org/2000/svg">
<path fill-rule="evenodd" clip-rule="evenodd" d="M373.919 168.206C425.843 157.886 463.761 216.484 510.398 241.535C567.284 272.09 665.161 267.444 676.887 330.943C689.211 397.682 573.32 422.925 556.012 488.549C536.704 561.752 616.036 644.147 577.145 709.101C538.574 773.52 448.64 800.038 373.919 792.673C301.281 785.513 255 717.122 197.854 671.716C143.832 628.791 55.8698 603.519 49.4052 534.824C42.7001 463.573 120.761 415.796 168.777 362.728C197.843 330.603 240.443 318.749 271.88 288.939C311.075 251.773 320.941 178.735 373.919 168.206Z" fill="#05325B"/>
<path fill-rule="evenodd" clip-rule="evenodd" d="M1105.2 7.38299C1181.98 33.1214 1148.26 165.661 1206.99 221.41C1252.36 264.473 1364.19 211.595 1383.16 271.204C1402.18 330.989 1279.32 352.771 1268.44 414.557C1254.09 495.997 1364.26 584.587 1316.12 651.822C1274.12 710.476 1171.42 671.163 1105.2 642.535C1051.89 619.488 1042.6 546.474 995.113 513.039C946.31 478.677 865.083 500.003 832.108 450.251C798.89 400.131 817.996 331.421 836.914 274.346C855.744 217.533 895.433 173.413 937.86 131.195C988.279 81.0239 1037.76 -15.2235 1105.2 7.38299Z" stroke="white" stroke-width="7"/>
<path fill-rule="evenodd" clip-rule="evenodd" d="M1658.34 137.628C1724.96 143.997 1756.49 221.25 1807.99 263.992C1854.82 302.862 1925.24 319.288 1946.1 376.463C1967.1 434.041 1930.85 494.081 1913.33 552.81C1895.28 613.312 1897.73 692.815 1842.54 723.492C1786.86 754.449 1721.66 701.624 1658.34 694.558C1605.08 688.615 1543.58 718.988 1501.77 685.465C1460 651.975 1459.06 588.268 1459 534.73C1458.96 492.603 1497.68 460.948 1501.48 418.993C1507.24 355.573 1455.35 288.862 1486.36 233.241C1519.1 174.513 1591.41 131.228 1658.34 137.628Z" fill="#05325B"/>
<rect y="282" width="1952" height="825" fill="#F93D24"/>
<mask id="mask0_714_3578" style="mask-type:alpha" maskUnits="userSpaceOnUse" x="0" y="281" width="1952" height="825">
<rect y="281" width="1952" height="825" fill="#F93D24"/>
</mask>
<g mask="url(#mask0_714_3578)">
<path fill-rule="evenodd" clip-rule="evenodd" d="M1661.34 137.628C1727.96 143.997 1759.49 221.25 1810.99 263.992C1857.82 302.862 1928.24 319.288 1949.1 376.463C1970.1 434.041 1933.85 494.081 1916.33 552.81C1898.28 613.312 1900.73 692.815 1845.54 723.492C1789.86 754.449 1724.66 701.624 1661.34 694.558C1608.08 688.615 1546.58 718.988 1504.77 685.465C1463 651.975 1462.06 588.268 1462 534.73C1461.96 492.603 1500.68 460.948 1504.48 418.993C1510.24 355.573 1458.35 288.862 1489.36 233.241C1522.1 174.513 1594.41 131.228 1661.34 137.628Z" fill="#05325B"/>
<path fill-rule="evenodd" clip-rule="evenodd" d="M373.919 168.206C425.843 157.886 463.761 216.484 510.398 241.535C567.284 272.09 665.161 267.444 676.887 330.943C689.211 397.682 573.32 422.925 556.012 488.549C536.704 561.752 616.036 644.147 577.145 709.101C538.574 773.52 448.64 800.038 373.919 792.673C301.281 785.513 255 717.122 197.854 671.716C143.832 628.791 55.8698 603.519 49.4052 534.824C42.7001 463.573 120.761 415.796 168.777 362.728C197.843 330.603 240.443 318.749 271.88 288.939C311.075 251.773 320.941 178.735 373.919 168.206Z" fill="#05325B"/>
<path fill-rule="evenodd" clip-rule="evenodd" d="M1466.58 595.032C1531.66 594.181 1603.14 610.07 1645.97 659.079C1686.68 705.658 1680.5 775.4 1678.23 837.217C1676.59 881.894 1651.73 919.256 1634.9 960.673C1619.62 998.258 1612.84 1039.2 1584.38 1068.12C1552.3 1100.73 1512.18 1135.49 1466.58 1131.75C1421.36 1128.04 1404.17 1066.72 1362.04 1049.88C1294.98 1023.07 1198.04 1065.23 1155.02 1007.22C1115.43 953.827 1163.88 877.384 1188.28 815.557C1211.24 757.367 1241.54 702.578 1290.57 663.728C1341.17 623.633 1402.03 595.877 1466.58 595.032Z" fill="#FBA08E"/>
<path fill-rule="evenodd" clip-rule="evenodd" d="M107.977 495.252C178.846 498.948 239.313 372.924 298.366 412.277C356.255 450.854 263.227 550.865 288.618 615.631C317.133 688.367 460.795 707.193 443.887 783.468C427.749 856.264 296.051 806.346 236.417 851.106C174.985 897.216 181.45 1013.2 107.977 1035.6C36.6304 1057.35 -58.2575 1017.41 -93.5477 951.7C-130.186 883.476 -60.0333 805.386 -57.2146 727.999C-55.7518 687.836 -76.4373 652.76 -81.2058 612.855C-90.1988 537.598 -161.778 431.649 -97.4091 391.634C-30.6516 350.135 29.4792 491.157 107.977 495.252Z" stroke="white" stroke-width="7"/>
<path fill-rule="evenodd" clip-rule="evenodd" d="M837.199 601.244C916.026 608.035 909.429 736.13 956.712 799.566C984.435 836.761 1033.05 852.401 1054.9 893.324C1079.98 940.29 1099.52 993.577 1088.06 1045.57C1076.07 1099.97 1041.21 1150.89 992.268 1177.49C945.695 1202.81 888.988 1170.61 837.199 1181.91C761.54 1198.43 686.463 1303.28 623.693 1257.93C561.001 1212.63 636.426 1108.65 629.213 1031.64C624.311 979.312 574.172 933.824 588.598 883.285C603.118 832.418 666.749 817.285 701.728 777.601C751.973 720.597 761.492 594.722 837.199 601.244Z" fill="#C1E2FF"/>
<path fill-rule="evenodd" clip-rule="evenodd" d="M1105.2 7.38299C1181.98 33.1214 1148.26 165.661 1206.99 221.41C1252.36 264.473 1364.19 211.595 1383.16 271.204C1402.18 330.989 1279.32 352.771 1268.44 414.557C1254.09 495.997 1364.26 584.587 1316.12 651.822C1274.12 710.476 1171.42 671.163 1105.2 642.535C1051.89 619.488 1042.6 546.474 995.113 513.039C946.31 478.677 865.083 500.003 832.108 450.251C798.89 400.131 817.996 331.421 836.914 274.346C855.744 217.533 895.433 173.413 937.86 131.195C988.279 81.0239 1037.76 -15.2235 1105.2 7.38299Z" stroke="white" stroke-width="7"/>
</g>
</svg>
