<svg width="1920" height="645" viewBox="0 0 1920 645" fill="none" xmlns="http://www.w3.org/2000/svg">
<g clip-path="url(#clip0_545_2173)">
<path d="M1920 6.10352e-05H6.10352e-05V645H1920V6.10352e-05Z" fill="#88B7E7"/>
<path d="M6.10352e-05 771.017C160.952 761.286 321.9 870.916 472.593 808.029C634.225 740.578 771.148 595.752 838.861 420.948C905.938 247.786 858.448 54.4845 836.806 -132.203C814.804 -321.999 832.61 -539.963 711.526 -677.46C591.098 -814.212 393.5 -804.668 221.914 -830.445C73.446 -852.748 -71.073 -847.455 -218.363 -817.156C-380.662 -783.769 -575.069 -787.391 -677.814 -645.361C-780.559 -503.332 -727.719 -296.2 -726.472 -114.771C-725.407 40.2308 -704.67 186.202 -671.063 336.745C-629.738 521.861 -656.708 770.541 -507.24 867.268C-356.336 964.923 -174.866 781.589 6.10352e-05 771.017Z" fill="#B2D1F0"/>
<path d="M1920 1178.92C2025.17 1183.84 2132.47 1219.13 2229.38 1173.97C2333.91 1125.26 2424.56 1035.34 2471.68 921.837C2518.78 808.354 2491.29 680.166 2486.08 555.568C2480.27 416.791 2512.49 263.828 2439.39 150.473C2365.01 35.1104 2231.11 -29.0644 2102.76 -38.9075C1983.34 -48.065 1889.08 62.4289 1774.22 99.4642C1659.33 136.509 1521.81 94.135 1429.65 178.127C1334.47 264.867 1286.97 408.914 1285.6 544.775C1284.29 674.339 1359.96 784.785 1422.41 894.695C1477.68 991.982 1534.49 1092.9 1627.1 1145.8C1715.98 1196.57 1819.91 1174.24 1920 1178.92Z" fill="#72AAE3"/>
</g>
<defs>
<clipPath id="clip0_545_2173">
<rect width="1920" height="645" fill="white"/>
</clipPath>
</defs>
</svg>
