<svg width="91" height="91" viewBox="0 0 91 91" fill="none" xmlns="http://www.w3.org/2000/svg">
<circle cx="45.5" cy="45.748" r="45" fill="#1C4B64"/>
<mask id="mask0_1109_4169" style="mask-type:alpha" maskUnits="userSpaceOnUse" x="0" y="0" width="91" height="91">
<circle cx="45.5" cy="45.748" r="44.5" fill="white" stroke="black"/>
</mask>
<g mask="url(#mask0_1109_4169)">
<path fill-rule="evenodd" clip-rule="evenodd" d="M7.5 -11.4797L17.125 -3.40158C26.75 4.67653 46 20.8327 65.25 18.5247C84.5 16.2167 103.75 -4.55559 123 -9.17165C142.25 -13.7877 161.5 -2.24756 180.75 1.21449C200 4.67653 219.25 0.0604687 228.875 -2.24756L238.5 -4.55559V-32.2519H228.875C219.25 -32.2519 200 -32.2519 180.75 -32.2519C161.5 -32.2519 142.25 -32.2519 123 -32.2519C103.75 -32.2519 84.5 -32.2519 65.25 -32.2519C46 -32.2519 26.75 -32.2519 17.125 -32.2519H7.5V-11.4797Z" fill="#E45036"/>
<path fill-rule="evenodd" clip-rule="evenodd" d="M-69.5 71.9758L-59.875 63.8977C-50.25 55.8196 -31 39.6634 -11.75 41.9714C7.5 44.2794 26.75 65.0517 46 69.6677C65.25 74.2838 84.5 62.7437 103.75 59.2816C123 55.8196 142.25 60.4356 151.875 62.7437L161.5 65.0517V92.748H151.875C142.25 92.748 123 92.748 103.75 92.748C84.5 92.748 65.25 92.748 46 92.748C26.75 92.748 7.5 92.748 -11.75 92.748C-31 92.748 -50.25 92.748 -59.875 92.748H-69.5V71.9758Z" fill="#F05738"/>
<circle cx="45.5" cy="45.748" r="44" stroke="white" stroke-width="2"/>
<path d="M54.78 51.988C55.42 55.348 56.68 58.008 58.56 59.968C60.44 61.888 62.66 62.848 65.22 62.848C66.9 62.848 68.14 62.368 68.94 61.408C69.74 60.448 70.14 59.388 70.14 58.228C70.14 56.508 69.38 55.068 67.86 53.908C66.38 52.708 64.24 51.428 61.44 50.068C57.68 48.228 54.84 46.188 52.92 43.948C51 41.708 50.04 38.988 50.04 35.788C50.04 33.428 50.62 31.388 51.78 29.668C52.98 27.908 54.6 26.568 56.64 25.648C58.68 24.728 60.96 24.268 63.48 24.268C64.8 24.268 66.22 24.408 67.74 24.688C69.3 24.928 70.54 25.308 71.46 25.828L76.56 24.268C77.28 25.508 77.74 27.228 77.94 29.428C78.14 31.588 78.24 34.088 78.24 36.928V37.828H73.26C71.82 31.988 69 29.068 64.8 29.068C63.2 29.068 62 29.528 61.2 30.448C60.4 31.328 60 32.508 60 33.988C60 35.188 60.32 36.228 60.96 37.108C61.6 37.988 62.4 38.748 63.36 39.388C64.36 39.988 65.68 40.688 67.32 41.488C69.84 42.728 71.94 43.888 73.62 44.968C75.34 46.048 76.82 47.488 78.06 49.288C79.3 51.048 79.92 53.148 79.92 55.588C79.92 57.828 79.36 59.868 78.24 61.708C77.12 63.508 75.48 64.948 73.32 66.028C71.2 67.108 68.72 67.648 65.88 67.648C62.64 67.648 59.42 66.968 56.22 65.608L51.6 67.648C50.84 66.128 50.18 63.768 49.62 60.568C49.06 57.328 48.78 54.468 48.78 51.988H54.78Z" fill="white"/>
<path d="M35.02 38.248C34.66 35.568 33.92 33.428 32.8 31.828C31.72 30.228 30.32 29.428 28.6 29.428C26.16 29.428 24.22 30.588 22.78 32.908C21.34 35.188 20.62 38.728 20.62 43.528C20.62 49.328 21.74 53.568 23.98 56.248C26.22 58.928 29.12 60.268 32.68 60.268C34.4 60.268 35.92 59.948 37.24 59.308C38.56 58.668 39.5 57.908 40.06 57.028C40.54 57.388 40.94 57.928 41.26 58.648C41.58 59.368 41.74 60.028 41.74 60.628C41.74 61.628 41.22 62.668 40.18 63.748C39.18 64.828 37.72 65.748 35.8 66.508C33.88 67.228 31.66 67.588 29.14 67.588C25.62 67.588 22.4 66.768 19.48 65.128C16.6 63.488 14.3 61.008 12.58 57.688C10.86 54.368 10 50.348 10 45.628C10 41.028 10.78 37.128 12.34 33.928C13.9 30.688 16.08 28.268 18.88 26.668C21.72 25.028 25.02 24.208 28.78 24.208C29.66 24.208 30.66 24.328 31.78 24.568C32.9 24.808 33.88 25.128 34.72 25.528C35.32 25.248 36.2 24.968 37.36 24.688C38.52 24.408 39.42 24.248 40.06 24.208C41.22 27.048 41.8 31.728 41.8 38.248H35.02Z" fill="white"/>
</g>
</svg>
